<svg width="40" height="40" viewBox="0 0 40 40" fill="none" xmlns="http://www.w3.org/2000/svg" id="backend-svg">
<path d="M20 35C28.2843 35 35 28.2843 35 20C35 11.7157 28.2843 5 20 5C11.7157 5 5 11.7157 5 20C5 28.2843 11.7157 35 20 35Z" fill="#983262"/>
<path d="M34.9963 20.2946L27.7584 13.0566L25.5308 14.1082L22.3123 10.8898L9.8833 20.5567L12.65 23.3234L11.7284 28.4531L18.1632 34.8879C18.7652 34.9614 19.3781 35 20 35C28.1858 35 34.8393 28.4428 34.9963 20.2946Z" fill="#662E57"/>
<path d="M27.7579 22.0822H26.293V14.5215H19.1997V13.0566H27.7579V22.0822Z" fill="#FF6838"/>
<path d="M20.2862 28.4531H11.728V19.4276H13.1929V26.9883H20.2862V28.4531Z" fill="#FF6838"/>
<path d="M24.6816 23.4245C27.1168 23.4245 29.0908 22.8137 29.0908 22.0602C29.0908 21.3067 27.1168 20.6959 24.6816 20.6959C22.2465 20.6959 20.2725 21.3067 20.2725 22.0602C20.2725 22.8137 22.2465 23.4245 24.6816 23.4245Z" fill="white"/>
<path d="M24.6819 20.6956C24.6772 20.6956 24.6727 20.6957 24.668 20.6957V23.424C24.6727 23.424 24.6772 23.4241 24.6819 23.4241C27.117 23.4241 29.0909 22.8133 29.0909 22.0599C29.0909 21.3064 27.117 20.6956 24.6819 20.6956Z" fill="#E0E0E0"/>
<path d="M20.2729 23.483C20.2729 24.2365 22.2469 24.8473 24.682 24.8473C27.117 24.8473 29.091 24.2365 29.091 23.483V22.0598C29.091 22.8133 27.117 23.4241 24.682 23.4241C22.2469 23.4241 20.2729 22.8133 20.2729 22.0598V23.483Z" fill="#E0E0E0"/>
<path d="M24.6819 23.4242C24.6772 23.4242 24.6727 23.4241 24.668 23.4241V24.8473C24.6727 24.8473 24.6772 24.8474 24.6819 24.8474C27.117 24.8474 29.0909 24.2366 29.0909 23.4831V22.0599C29.0909 22.8134 27.117 23.4242 24.6819 23.4242Z" fill="#C0C0C0"/>
<path d="M20.2729 25.4039C20.2729 26.1574 22.2469 26.7682 24.682 26.7682C27.117 26.7682 29.091 26.1574 29.091 25.4039V23.9807C29.091 24.7342 27.117 25.345 24.682 25.345C22.2469 25.345 20.2729 24.7342 20.2729 23.9807V25.4039Z" fill="#E0E0E0"/>
<path d="M24.6819 25.345C24.6772 25.345 24.6727 25.3449 24.668 25.3449V26.7681C24.6727 26.7681 24.6772 26.7682 24.6819 26.7682C27.117 26.7682 29.0909 26.1574 29.0909 25.4039V23.9807C29.0909 24.7342 27.117 25.345 24.6819 25.345Z" fill="#C0C0C0"/>
<path d="M20.2729 27.3248C20.2729 28.0783 22.2469 28.6891 24.682 28.6891C27.117 28.6891 29.091 28.0783 29.091 27.3248V25.9016C29.091 26.6551 27.117 27.2659 24.682 27.2659C22.2469 27.2659 20.2729 26.6551 20.2729 25.9016V27.3248Z" fill="#E0E0E0"/>
<path d="M24.6819 27.2659C24.6772 27.2659 24.6727 27.2658 24.668 27.2658V28.689C24.6727 28.689 24.6772 28.6891 24.6819 28.6891C27.117 28.6891 29.0909 28.0783 29.0909 27.3248V25.9016C29.0909 26.6551 27.117 27.2659 24.6819 27.2659Z" fill="#C0C0C0"/>
<path d="M20.2729 29.2457C20.2729 29.9992 22.2469 30.61 24.682 30.61C27.117 30.61 29.091 29.9992 29.091 29.2457V27.8225C29.091 28.576 27.117 29.1868 24.682 29.1868C22.2469 29.1868 20.2729 28.576 20.2729 27.8225V29.2457Z" fill="#E0E0E0"/>
<path d="M24.6819 29.1868C24.6772 29.1868 24.6727 29.1867 24.668 29.1867V30.6099C24.6727 30.6099 24.6772 30.61 24.6819 30.61C27.117 30.61 29.0909 29.9992 29.0909 29.2457V27.8225C29.0909 28.576 27.117 29.1868 24.6819 29.1868Z" fill="#C0C0C0"/>
<path d="M18.6711 23.3527H13.5244L14.2656 19.5326H17.9299L18.6711 23.3527Z" fill="#E0E0E0"/>
<path d="M17.9302 19.5326H16.0884V23.3527H18.6713L17.9302 19.5326Z" fill="#C0C0C0"/>
<path d="M22.3122 10.8898H9.8833V19.6935H22.3122V10.8898Z" fill="#1A1A1A"/>
<path d="M22.3117 10.8898H16.0879V19.6935H22.3117V10.8898Z" fill="black"/>
<path d="M21.4645 11.7178H10.7319V20.065H21.4645V11.7178Z" fill="#35CCFF"/>
<path d="M21.4639 11.7178H16.0879V20.065H21.4639V11.7178Z" fill="#00BAFF"/>
<path d="M22.3122 18.0177H9.8833V20.5566H22.3122V18.0177Z" fill="white"/>
<path d="M22.3117 18.0177H16.0879V20.5566H22.3117V18.0177Z" fill="#E0E0E0"/>
<path d="M16.0975 19.6934C16.3997 19.6934 16.6447 19.4484 16.6447 19.1462C16.6447 18.844 16.3997 18.599 16.0975 18.599C15.7953 18.599 15.5503 18.844 15.5503 19.1462C15.5503 19.4484 15.7953 19.6934 16.0975 19.6934Z" fill="#E0E0E0"/>
<path d="M16.098 18.5992C16.0948 18.5992 16.0916 18.5997 16.0884 18.5997V19.6931C16.0916 19.6932 16.0947 19.6936 16.098 19.6936C16.4002 19.6936 16.6452 19.4486 16.6452 19.1464C16.6451 18.8442 16.4002 18.5992 16.098 18.5992Z" fill="#C0C0C0"/>
</svg>
