<svg width="44" height="44" viewBox="0 0 44 44" xmlns="http://www.w3.org/2000/svg">
    <path fill-rule="evenodd" clip-rule="evenodd" d="M5.41992 1.18994H37.9293C40.2593 1.18994 42.1592 3.08991 42.1592 5.41986V37.9293C42.1592 40.2592 40.2593 42.1592 37.9293 42.1592H5.41992C3.08997 42.1592 1.19 40.2592 1.19 37.9293V5.41986C1.19 3.08991 3.08997 1.18994 5.41992 1.18994ZM17.9897 29.6794H8.50987V13.6697H17.6197V16.4597H11.9298V20.2296H17.2197V23.0095H11.9298V26.8895H17.9997V29.6794H17.9897ZM34.8494 29.6794H31.3494L24.5696 19.3196C24.2196 18.7796 23.9596 18.3496 23.7996 18.0196H23.7496C23.8096 18.5696 23.8396 19.4196 23.8396 20.5696V29.6794H20.6096V13.6697H24.3296L30.8595 23.7295C31.2894 24.3995 31.5594 24.8195 31.6494 24.9995H31.6994C31.6294 24.6095 31.5994 23.8695 31.5994 22.7895V13.6597H34.8394V29.6694L34.8494 29.6794Z"/>
</svg>
